<?xml version="1.0" encoding="utf-8"?>
<!-- Generator: Adobe Illustrator 22.1.0, SVG Export Plug-In . SVG Version: 6.00 Build 0)  -->
<svg version="1.1" id="Layer_1" xmlns="http://www.w3.org/2000/svg" xmlns:xlink="http://www.w3.org/1999/xlink" x="0px" y="0px"
	 viewBox="0 0 512 512" style="enable-background:new 0 0 512 512;" xml:space="preserve">
<style type="text/css">
	.st0{fill:url(#SVGID_1_);}
	.st1{fill:none;stroke:#FFFFFF;stroke-width:35.0651;stroke-miterlimit:10;}
	.st2{fill:none;stroke:#FFFFFF;stroke-width:42.8573;stroke-miterlimit:10;}
	.st3{fill:#FFFFFF;}
</style>
<g>
	<radialGradient id="SVGID_1_" cx="166.3495" cy="468.6041" r="431.6825" gradientUnits="userSpaceOnUse">
		<stop  offset="0" style="stop-color:#FFD776"/>
		<stop  offset="0.2463" style="stop-color:#F3A554"/>
		<stop  offset="0.3793" style="stop-color:#F15C3C"/>
		<stop  offset="0.5394" style="stop-color:#D94867"/>
		<stop  offset="0.6995" style="stop-color:#C32F87"/>
		<stop  offset="0.9122" style="stop-color:#7D63A7"/>
		<stop  offset="0.9852" style="stop-color:#5C6CB3"/>
	</radialGradient>
	<path class="st0" d="M470.1,376c0,51.7-41.7,93.6-93.2,93.6H135.1c-51.5,0-93.2-41.9-93.2-93.6V136c0-51.7,41.7-93.6,93.2-93.6
		h241.9c51.5,0,93.2,41.9,93.2,93.6V376z"/>
	<g>
		<path class="st1" d="M399.8,324.9c0,43.9-35.6,79.6-79.6,79.6H191.8c-43.9,0-79.6-35.6-79.6-79.6V188c0-43.9,35.6-79.6,79.6-79.6
			h128.4c43.9,0,79.6,35.6,79.6,79.6V324.9z"/>
		<path class="st2" d="M326.6,256c-0.9,39-31.6,70.6-70.6,70.6S185.4,295,185.4,256s31.6-71.7,70.6-70.6
			C303.5,186.8,327.4,217.2,326.6,256z"/>
		<circle class="st3" cx="342.9" cy="168.7" r="19.8"/>
	</g>
</g>
</svg>
