<svg id="objects" xmlns="http://www.w3.org/2000/svg" viewBox="0 0 200 200"><defs><style>.cls-1{fill:#064c78;}.cls-2{fill:#fff;}</style></defs><title>rs</title><path class="cls-1" d="M113.19,88.24V87.9c-.07.12-.17.23-.23.34Z"/><rect class="cls-2" x="25.63" y="73.28" width="34.29" height="103.16"/><path class="cls-2" d="M42.78,59.2h-.22c-11.51,0-19-7.92-19-17.83,0-10.12,7.67-17.82,19.41-17.82s18.95,7.7,19.17,17.82C62.18,51.28,54.74,59.2,42.78,59.2Z"/><path class="cls-2" d="M183.59,176.45h-34.3V121.25c0-13.86-5-23.33-17.37-23.33-9.48,0-15.11,6.37-17.59,12.54a23.48,23.48,0,0,0-1.14,8.36v57.62H78.89s.46-93.49,0-103.16h34.3V87.9c4.56-7,12.69-17,30.91-17,22.57,0,39.49,14.74,39.49,46.42Z"/></svg>