<svg id="Calque_1" data-name="Calque 1" xmlns="http://www.w3.org/2000/svg" viewBox="0 0 1066 290"><defs><style>.cls-1{fill:#e95228;}.cls-2{fill:#7fba28;}.cls-3{fill:#777778;}.cls-4{fill:#329fda;}.cls-5{fill:#fbb814;}.cls-6{fill:#cea31b;}</style></defs><title>logo_ms_partner</title><path class="cls-1" d="M14.19,13H139.43q0,62.62,0,125.24H14.19V13Z"/><path class="cls-2" d="M152.21,13H277.45q0,62.62,0,125.24H152.22q0-62.62,0-125.24Z"/><path class="cls-3" d="M964.89,19.53c9.5-6.18,21.77-6.76,32.47-3.81.09,6.36,0,12.73,0,19.1-5.09-2.24-11.07-3.7-16.42-1.5-4.24,1.68-6.77,6-7.43,10.4-.8,5.53-.28,11.13-.41,16.68,10.87,0,21.73,0,32.6,0,.08-7.05-.09-14.11.09-21.17,7.39-2.1,14.7-4.46,22-6.68.06,9.29-.09,18.59.08,27.89,7.34-.11,14.7,0,22,0V78.49c-7.38-.3-14.76-.08-22.13-.11,0,10.4,0,20.8,0,31.21.12,5.76-.31,11.55.37,17.29.41,3.38,1.64,7.13,4.81,8.89,5.32,3,12.06,1.68,16.94-1.59v18.27a43.57,43.57,0,0,1-20.37,3.12c-6.53-.48-13.3-2.86-17.57-8.06-4.93-5.87-6.19-13.82-6.29-21.26-.06-16,0-31.93,0-47.9q-16.31,0-32.61,0,0,37.58,0,75.16H950.85q0-37.57,0-75.14c-5.17-.1-10.34,0-15.51-.08,0-5.95,0-11.9,0-17.85,5.14-.12,10.29-.07,15.44,0,.38-7.91-.83-16,1.53-23.75a30.39,30.39,0,0,1,12.57-17.15Z"/><path class="cls-3" d="M487.82,20.83a13.63,13.63,0,0,1,12.33,4.37,12.7,12.7,0,0,1,1.55,14.47c-2.86,5.07-9.26,7.43-14.83,6.21-5.79-1-10.61-6.42-10.35-12.41-.17-6.31,5.11-11.94,11.3-12.64Z"/><path class="cls-3" d="M317.05,23.58h32.41Q364.59,62,379.8,100.39c2.58,6.4,5,12.88,7.7,19.24,13-32,26.14-63.93,39-96,10.39-.17,20.78,0,31.18-.06q0,65,0,129.93c-7.5,0-15,.06-22.49,0,.08-32,0-63.92,0-95.89,0-1.44,0-2.87-.14-4.31a17.17,17.17,0,0,0-1.17,2.08c-12.88,32.72-26,65.34-38.8,98.08-5.33.19-10.67,0-16,.1-13.29-32.72-26.4-65.5-39.62-98.24-.35-.68-.72-1.34-1.12-2-.27,14,0,28-.12,42q0,29.09,0,58.18c-7.07,0-14.15,0-21.21,0q0-65,0-129.94Z"/><path class="cls-3" d="M549.14,60.31a61,61,0,0,1,33.1.1,26.71,26.71,0,0,1,6.35,2.65c-.12,7.1,0,14.2-.07,21.3-7.18-5.49-16.3-9-25.43-7.82a26.17,26.17,0,0,0-18.51,10.28c-5.58,7.26-6.86,16.91-5.9,25.8.72,7,3.6,13.9,9,18.51,5.62,5,13.5,6.76,20.85,6.21a42.45,42.45,0,0,0,20-8.21c.06,6.73,0,13.45,0,20.18-9.11,5.42-20,6.82-30.46,6.31-10.67-.56-21.3-4.6-29-12.1-8.39-8.09-12.94-19.62-13.48-31.17-.54-12,1.9-24.54,8.81-34.57a44.83,44.83,0,0,1,24.72-17.46Z"/><path class="cls-3" d="M792.54,58.89a58.94,58.94,0,0,1,30.84,3.21c0,6.83,0,13.66,0,20.48A39.27,39.27,0,0,0,800,75.67c-4.16.16-8.74,1.92-10.64,5.88-1.51,3.92-.46,9.05,3.23,11.4,6.32,4.23,13.85,6,20.4,9.81,5.15,2.9,10.15,6.68,12.77,12.14,4.91,10.22,2.83,23.73-5.8,31.35-8.24,7.7-20.1,9.83-31,9.42a66.25,66.25,0,0,1-22.65-5.2c0-7.18,0-14.36,0-21.54a48.73,48.73,0,0,0,20.22,8.72c5.09.83,10.63.87,15.38-1.41,4.54-2.26,5.36-8.71,2.66-12.66-2.52-3-6.23-4.72-9.73-6.37-6.57-3-13.46-5.42-19.23-9.84a23.05,23.05,0,0,1-8.32-12.64c-1.78-7.41-1.23-15.75,3.08-22.23,4.92-7.54,13.46-12.07,22.17-13.62Z"/><path class="cls-3" d="M638.42,61.83c6.15-3.69,14-4,20.68-1.74,0,7.43,0,14.86,0,22.29A23.68,23.68,0,0,0,644,78.84c-6.32.72-11.34,5.58-13.94,11.14-2.82,5.9-3.35,12.57-3.17,19q0,22.27,0,44.53h-22q0-46.54,0-93.08c7.33-.09,14.67-.06,22,0,0,5.33,0,10.66,0,16,2.38-5.8,5.93-11.43,11.52-14.59Z"/><path class="cls-3" d="M478.54,60.43c7.39,0,14.78-.11,22.17,0-.09,31,0,62,0,93.06H478.55q0-46.55,0-93.1Z"/><path class="cls-3" d="M751.46,82.14A39.4,39.4,0,0,0,732,62.47c-9.93-4.52-21.21-5.12-31.9-3.76-11.23,1.42-22.16,6.7-29.29,15.66-6.51,8-9.68,18.27-10.28,28.46-.9,12,1.11,24.76,8.16,34.78a42.19,42.19,0,0,0,25.74,16.79,64,64,0,0,0,26.09,0,43.13,43.13,0,0,0,25.58-15.79c6.06-7.7,9.11-17.42,9.8-27.12C756.59,101.58,755.59,91.3,751.46,82.14Zm-21.52,42.75A20.35,20.35,0,0,1,719,135.64a30,30,0,0,1-18.16.8,22.24,22.24,0,0,1-14-11.52c-3.59-7.17-4.13-15.45-3.38-23.31.67-7.15,3.16-14.5,8.61-19.43a23.3,23.3,0,0,1,14.66-5.79c6.7-.44,13.82,1.45,18.64,6.32,5.15,5.06,7.14,12.41,7.69,19.41C733.47,109.79,733.16,117.78,729.94,124.89Z"/><path class="cls-3" d="M929.91,84.83a39.76,39.76,0,0,0-19.14-21.66c-10.15-5.12-22-5.87-33.07-4.49-9,1.15-17.78,4.55-24.62,10.56-8.35,7.2-13.25,17.78-14.7,28.6s-.91,22.22,3.5,32.35a41.29,41.29,0,0,0,22.64,22c9.92,3.9,20.95,4.34,31.38,2.65a43.52,43.52,0,0,0,27.39-16c7.06-8.92,10.1-20.47,10.08-31.72A59.36,59.36,0,0,0,929.91,84.83Zm-20.1,31.57a29,29,0,0,1-5.76,13.67,20.85,20.85,0,0,1-13,7,29.45,29.45,0,0,1-15.94-1.73A22.58,22.58,0,0,1,863.34,123c-2.64-6.39-3.17-13.46-2.64-20.29.51-6.61,2.38-13.4,6.75-18.54a22.8,22.8,0,0,1,16.26-7.8c6.29-.44,13,1,17.85,5.27,4.46,3.7,6.93,9.24,8.06,14.83A56.58,56.58,0,0,1,909.81,116.4Z"/><path class="cls-4" d="M14.19,151q62.62,0,125.24,0,0,62.62,0,125.23H14.19V151Z"/><path class="cls-5" d="M152.22,151q62.61,0,125.23,0V276.26H152.21q0-62.62,0-125.23Z"/><path class="cls-6" d="M392.35,266.46a64.49,64.49,0,0,1-32.29,8.21q-20.65,0-33.39-13.32t-12.75-35.24q0-22.4,14.16-36.76T364,175q15.74,0,26.43,5.11v12.51q-11.7-7.4-27.71-7.4-16.21,0-26.57,11.17T325.77,225.3q0,18.3,9.62,28.75t26.1,10.46q11.3,0,19.57-4.51V233H359.93V222.74h32.42Z"/><path class="cls-6" d="M441.37,274.67q-15.27,0-24.38-9.65t-9.11-25.59q0-17.35,9.48-27.11T443,202.57q15.4,0,24,9.48t8.64,26.3q0,16.48-9.32,26.4T441.37,274.67Zm.81-62.82q-10.63,0-16.81,7.23T419.17,239q0,12.24,6.25,19.3t16.75,7.06q10.69,0,16.44-6.93t5.75-19.71q0-12.91-5.75-19.91T442.18,211.85Z"/><path class="cls-6" d="M503.64,273.05h-11v-102h11Z"/><path class="cls-6" d="M584.06,273.05H573v-11.7h-.27q-7.67,13.32-23.68,13.32-13,0-20.75-9.25t-7.77-25.19q0-17.08,8.61-27.37t22.94-10.29q14.19,0,20.65,11.17H573V171.09h11Zm-11-31.14V231.76a19.71,19.71,0,0,0-5.52-14.12,18.5,18.5,0,0,0-14-5.78q-10.09,0-15.87,7.4t-5.78,20.45q0,11.9,5.55,18.8a18.13,18.13,0,0,0,14.9,6.89,18.84,18.84,0,0,0,15-6.66Q573,252.07,573,241.91Z"/><path class="cls-3" d="M632.55,235.5V272h-11.3V175.5h26.5q15.47,0,24,7.53t8.51,21.25q0,13.72-9.45,22.46t-25.53,8.74Zm0-49.77v39.55h11.84q11.7,0,17.86-5.35t6.15-15.1q0-19.1-22.6-19.1Z"/><path class="cls-3" d="M747,272H736V261.19h-.27q-7.2,12.38-21.19,12.38-10.29,0-16.11-5.45t-5.82-14.46q0-19.3,22.73-22.46L736,228.3q0-17.55-14.19-17.55a33.9,33.9,0,0,0-22.46,8.47v-11.3a42.68,42.68,0,0,1,23.41-6.46q24.28,0,24.28,25.69Zm-11-34.84-16.61,2.29q-7.67,1.08-11.57,3.8t-3.9,9.65a10.51,10.51,0,0,0,3.6,8.24q3.6,3.2,9.58,3.2a17.7,17.7,0,0,0,13.55-5.75Q736,252.79,736,244Z"/><path class="cls-3" d="M804.27,214.25q-2.89-2.22-8.34-2.22-7.06,0-11.8,6.66t-4.74,18.16V272h-11V203.08h11v14.19h.27a24.06,24.06,0,0,1,7.2-11.33,16.41,16.41,0,0,1,10.83-4.07,18,18,0,0,1,6.59.94Z"/><path class="cls-3" d="M848.74,271.28q-3.9,2.15-10.29,2.15-18.09,0-18.09-20.18V212.5H808.52v-9.42h11.84V186.27l11-3.56v20.38h17.35v9.42H831.39v38.81q0,6.93,2.35,9.89t7.8,3a11.59,11.59,0,0,0,7.2-2.29Z"/><path class="cls-3" d="M921.2,272h-11V232.67q0-21.93-16-21.93A17.37,17.37,0,0,0,880.47,217q-5.41,6.22-5.41,15.71V272H864V203.08h11v11.43h.27q7.8-13,22.6-13,11.3,0,17.29,7.3t6,21.09Z"/><path class="cls-3" d="M997.89,240.28H949.26q.27,11.5,6.19,17.76t16.28,6.26a33.84,33.84,0,0,0,21.39-7.67V267q-9.08,6.59-24,6.59-14.6,0-22.94-9.38t-8.34-26.4q0-16.08,9.11-26.2a29.22,29.22,0,0,1,22.63-10.12q13.52,0,20.92,8.74t7.4,24.28Zm-11.3-9.35q-.07-9.55-4.61-14.86t-12.61-5.31a17.82,17.82,0,0,0-13.25,5.58,25.33,25.33,0,0,0-6.73,14.6Z"/><path class="cls-3" d="M1051,214.25q-2.89-2.22-8.34-2.22-7.06,0-11.8,6.66t-4.74,18.16V272h-11V203.08h11v14.19h.27a24.06,24.06,0,0,1,7.2-11.33,16.41,16.41,0,0,1,10.83-4.07,18,18,0,0,1,6.59.94Z"/></svg>