<svg id="Calque_1" data-name="Calque 1" xmlns="http://www.w3.org/2000/svg" viewBox="0 0 226 132"><defs><style>.cls-1{fill:#e33c2b;}</style></defs><title>logo_rouge</title><path class="cls-1" d="M49.09,38A45.48,45.48,0,0,0,16,51.6,44.21,44.21,0,0,0,2.24,84.37,43.87,43.87,0,0,0,16,117a45.73,45.73,0,0,0,33,13.44H80.23c-4.35-5-7.19-8-7.31-18.38H49.09a26,26,0,0,1-19.38-8.15,27.08,27.08,0,0,1-7.91-19.58,27.45,27.45,0,0,1,7.91-19.69,25.83,25.83,0,0,1,19.38-8.26,25.78,25.78,0,0,1,19.38,8.26A27.41,27.41,0,0,1,76.4,84.37l.6,23.89c-.08,0-1.25,11,4.4,16.65,4.06,6.63,14.69,5.57,14.69,5.57V84.37A44.16,44.16,0,0,0,82.19,51.6,45.7,45.7,0,0,0,49.09,38Zm56,0v15.7C110.9,52.33,118.67,59,124.5,64V57.44A19.53,19.53,0,0,0,105.07,38Zm1.61,22a15.66,15.66,0,0,0-1.61.12v51a19.5,19.5,0,0,0,19.43,19.41V69.75c-4.17-3.47-9.94-10-17.82-9.76Z"/><polygon class="cls-1" points="133.59 73.08 184.7 64.7 218.27 85.2 166.55 91.98 133.59 73.08"/><polygon class="cls-1" points="193.25 1.46 187.15 61.65 219.18 81.46 223.76 26.61 193.25 1.46"/><path class="cls-1" d="M138.63,12,131.77,70l51.72-8.69,6.2-59.89Zm40.15,10.51-.44,4.15a12.08,12.08,0,0,1-1.6,4,18.71,18.71,0,0,1-1.45,1.83c-.2.21-.49.54-.88,1a4.9,4.9,0,0,1,.76.56,4.7,4.7,0,0,1,1.1,1.32,7.37,7.37,0,0,1,.69,4.27l-.53,5a9.89,9.89,0,0,1-2.14,4.08,9.38,9.38,0,0,1-2.85,2.49,12.85,12.85,0,0,1-3.66,1.17l-23.31,4.18,1-9.57,20.19-3.61.5-4.7-16.76,3,.82-7.62,16.75-3,.5-4.7L147.61,29.8l1-9.56,22.83-4.08A11,11,0,0,1,175,16a3.89,3.89,0,0,1,2.62,1.51,5,5,0,0,1,1,2.3A8.41,8.41,0,0,1,178.77,22.49Z"/></svg>