<svg id="Calque_1" data-name="Calque 1" xmlns="http://www.w3.org/2000/svg" viewBox="0 0 338 376"><defs><style>.cls-1{fill:#fff;}</style></defs><title>logo_sma</title><g id="COULEURS_RGB" data-name="COULEURS RGB"><g id="Texte"><path class="cls-1" d="M91.74,281c1.87-8.8,6.09-9.59,14.23-9.59,7.13,0,12.21.31,9.91,9.28h-3.74c1.05-5.76,0-6-7-6-7.3,0-8.51.92-9.49,5.5-1.34,6.29,1.77,5.76,7.89,5.94,7.74.44,11.75.22,9.84,9.15-2,9.33-6.45,9.64-14.77,9.64s-12.54-1-9.81-10.56h3.74c-1.63,7.26-.22,7.26,6.77,7.26s9,0,10.35-6.47c1.34-6.29-1.7-5.24-7.63-5.72C95.65,288.88,89.89,289.68,91.74,281Z"/><path class="cls-1" d="M137.69,297.64l-.18.84c-1.3,6.12-6.08,6.42-11.22,6.42-9,0-9.75-3-7.87-11.79,2-9.59,4.63-11.84,12.9-11.84,7.48,0,9.49,1.72,7.67,10.25l-.5,2.33H121.86c-1.55,7.3-1.22,8.23,5,8.23,4.75,0,6.36-.31,7.05-3.56l.19-.88Zm-2.2-6.6c1.22-6.56.51-7-4.77-7-6.29,0-6.86,1.63-8.26,7Z"/><path class="cls-1" d="M150.26,281.54l-.78,2.86.07.09c1.73-2.55,4.64-3.21,7.24-3.21,4.44,0,6,2.2,5,6.51l-.36,1.67h-3.3l.33-1.54c.61-2.86-.15-3.83-3.06-3.83-4.31,0-6.16,2.07-6.94,6.16l-3.06,14.39H142l4.91-23.1Z"/><path class="cls-1" d="M173.64,304.64h-4.88L166,281.54h3.52l2.2,20.46h.09l10.69-20.46h3.78Z"/><path class="cls-1" d="M188.55,304.64h-3.48l4.91-23.1h3.48Zm6.21-29.17h-3.48l.81-3.83h3.48Z"/><path class="cls-1" d="M216.42,296.28l-.27,1.28c-1.39,6.51-5.88,7.35-11.38,7.35-9.59,0-9.47-3.7-7.64-12.28,1.6-7.52,3.74-11.35,12.1-11.35,5.59,0,9.86.62,8.46,7.17l-.13.62h-3.48l.15-.7c.89-4.18-1.38-4.27-5.38-4.27-6.16,0-6.74,2.11-8.31,9.5-1.39,6.51-1.54,8.49,5.23,8.49,4.36,0,6-.48,6.93-4.66l.24-1.14Z"/><path class="cls-1" d="M241.34,297.64l-.18.84c-1.3,6.12-6.07,6.42-11.22,6.42-9,0-9.75-3-7.87-11.79,2-9.59,4.63-11.84,12.9-11.84,7.48,0,9.49,1.72,7.67,10.25l-.5,2.33H225.51c-1.55,7.3-1.22,8.23,5,8.23,4.75,0,6.36-.31,7.05-3.56l.19-.88Zm-2.2-6.6c1.22-6.56.51-7-4.77-7-6.29,0-6.86,1.63-8.25,7Z"/><path class="cls-1" d="M268,287.56h-3.61l.19-.88c.5-2.33-1.26-2.33-4.92-2.33-4.36,0-6.46,0-7.07,2.82-.88,4.14.33,3.83,3.9,4,5.87.35,11.47-.57,9.87,7-1.39,6.51-5.93,6.78-11.08,6.78s-10.2-.26-9.1-5.41l.46-2.16h3.61l-.38,1.8c-.47,2.2.79,2.68,6.07,2.68,2.38,0,5.92.53,6.79-3.56.92-4.31-1.06-3.52-5.22-3.78-4.94-.35-10.11.18-8.72-6.38s5.28-6.82,11.53-6.82c4,0,9,.18,7.87,5.41Z"/><path class="cls-1" d="M18.67,354.92H4.92l11-51.55H37.69l2.94,32.37h.48l16.24-32.37H79.68l-11,51.55H55l9.79-39.52h-.48L42.79,354.92H30.9L26.12,315.4h-.41Z"/><path class="cls-1" d="M102,349.56h-.41c-1.95,4.95-7.48,5.77-11.61,5.77-8.25,0-12.64-2-10.67-11.2,1.84-8.66,7-11.34,15.47-11.34,3.37,0,8.54-.07,9,4.05h.55l1.22-5.7c.72-3.37,1-5.5-4.19-5.5-3,0-5,.69-5.65,3.92H83.87c2.39-11.2,10.55-11.14,19-11.14,12.1,0,16.86,1.51,14.21,14l-4.8,22.55H100.46Zm-10.8-5.77c-.83,3.92,2.53,3.92,4.32,3.92,4.95,0,6.59-.62,7.4-4.4.64-3-1.91-3.3-5.76-3.3C94.29,340,91.92,340.48,91.22,343.78Z"/><path class="cls-1" d="M140.86,318.83l-1.43,6.74h.48c2.93-5.71,6.75-7.15,12.31-7.15,8,0,10.81,3.78,9.16,11.55l-5.31,25H144.25l4.73-22.2c.68-3.51.08-5.22-3.77-5.22-5.29,0-6.86,3.16-7.8,7.56l-4.23,19.87H121.36L129,318.83Z"/><path class="cls-1" d="M189.17,349.56h-.41c-1.95,4.95-7.48,5.77-11.61,5.77-8.25,0-12.64-2-10.67-11.2,1.84-8.66,7-11.34,15.47-11.34,3.37,0,8.54-.07,9,4.05h.55l1.21-5.7c.72-3.37,1-5.5-4.19-5.5-3,0-5,.69-5.65,3.92H171c2.39-11.2,10.55-11.14,19-11.14,12.1,0,16.86,1.51,14.21,14l-4.8,22.55H187.62Zm-10.8-5.77c-.83,3.92,2.53,3.92,4.32,3.92,4.95,0,6.59-.62,7.4-4.4.64-3-1.91-3.3-5.76-3.3C181.45,340,179.07,340.48,178.37,343.78Z"/><path class="cls-1" d="M219,358.15c-.43,2,0,3.09.87,3.64a7.7,7.7,0,0,0,3.53.55c5.09,0,6.36-.82,7.43-5.84l1.6-7.49H232c-2.46,4.47-6.55,5.91-11.09,5.91-12.79,0-12.23-7.77-10.05-18,2.49-11.69,5.38-18.49,17.82-18.49,5.09,0,8.53,1.24,8.79,6.8h.41l.95-6.39h11.82l-7.35,34.51c-2.87,13.47-7.46,17.6-21.34,17.6-12.78,0-16.2-1.37-14.19-12.78Zm16-21.24c1.74-8.18.7-9.42-4.25-9.42-5.5,0-6.28,1.1-8.05,9.42-1.58,7.42-.94,8.94,4.15,8.94C232.58,345.85,233.64,343.1,235,336.91Z"/><path class="cls-1" d="M288.13,342.89c-1.16,5.43-3.6,8.52-7.08,10.31s-7.95,2.13-13.17,2.13c-14.23,0-16.61-4.95-13.74-18.42,3-13.88,7.1-18.49,21.6-18.49,13.54,0,16.79,3.78,13.66,18.49l-.43,2H265.54c-1.35,6.32-.78,8.18,4.1,8.18,3.64,0,6.07-.41,6.87-4.19Zm-9.58-10.52c1.14-5.36-.78-5.71-4.77-5.71-4.19,0-5.7,1-6.85,5.71Zm7.6-21.79-16.57,4.88-1-4.26L284.33,303Z"/><path class="cls-1" d="M319.25,329.07c.23-3-2.31-3-4.17-3-6.19,0-6.35.76-6.8,2.89-.38,1.79-.51,3,5.51,3.16,12.18.28,17.46,1,15.31,11.07-2.25,10.59-10.77,12.17-20.26,12.17s-17.71.21-15.18-11.69h11.82c-.86,4.06,2.09,4.06,5,4.06,5.36,0,6.26-.34,6.86-3.16.76-3.57-1.3-3.57-5.43-3.57-15,0-16.95-3.37-15.38-10.72,2.47-11.62,10.15-11.82,20.18-11.82,6.6,0,15.93.07,14,8.94l-.37,1.72Z"/></g><g id="Forme"><path class="cls-1" d="M229,202.3a16,16,0,0,1-5.25.24l-22.47-2.65a4.11,4.11,0,0,1-3.42-4.42,3.62,3.62,0,0,1,3.93-3.56l22.47,2.65a9.25,9.25,0,0,0,8.7-3.87,11.43,11.43,0,0,0,1.62-10.16L213.3,109.61l-23,12.9a3.38,3.38,0,0,1-2.91.19l-36.31-14.2,6.9,26.3a3.9,3.9,0,0,1-2.52,4.86,3.82,3.82,0,0,1-4.56-2.93l-8.48-32.34a4.81,4.81,0,0,1,1.1-4.61,4,4,0,0,1,4.36-1l40.24,15.74L210.47,102a6.13,6.13,0,0,1,5.66-.17,7.44,7.44,0,0,1,3.9,4.64l21.53,71.81a20,20,0,0,1-2.8,17.55A16.45,16.45,0,0,1,229,202.3Zm-79.53-99.93,0,.14Z"/><path class="cls-1" d="M171.77,243.84a3.35,3.35,0,0,1-.75.07l-45.29-.49c-10.89-.12-20.58-8.25-23.57-19.79L90.72,179.43a3.9,3.9,0,0,1,2.53-4.85,3.82,3.82,0,0,1,4.55,2.95l11.45,44.21c2.06,8,8.75,13.58,16.27,13.66l45.29.49a4,4,0,0,1,3.79,4.05A3.77,3.77,0,0,1,171.77,243.84Z"/><path class="cls-1" d="M50.36,261.76a3.87,3.87,0,0,1-3.69-5L121.84,16a12.6,12.6,0,0,1,20.59-5.5L307,162.75a3.86,3.86,0,1,1-5.25,5.67L137.19,16.19a4.88,4.88,0,0,0-8,2.13L54,259A3.87,3.87,0,0,1,50.36,261.76Z"/><path class="cls-1" d="M187.54,152.79a15.92,15.92,0,0,0-8.32-10.33,13.07,13.07,0,0,0-12.39.37L141,157.74a7.45,7.45,0,0,1-6.72.36,9,9,0,0,1-4.84-5.32l0-.11-6.67-17.39c-2.61-6.81-.35-14.41,5.13-18.06l8.51-4.34a3.41,3.41,0,0,0,.29-.19,1.86,1.86,0,0,0,.58-.47,3.58,3.58,0,0,0,.27-.27c.08-.09.13-.2.2-.3s.15-.2.21-.32.1-.23.14-.34.11-.23.14-.35.05-.24.08-.37.06-.25.08-.37,0-.26,0-.38,0-.26,0-.39,0-.27-.06-.4,0-.25-.06-.38-.09-.28-.14-.42-.06-.23-.11-.34v0a4.15,4.15,0,0,0-.21-.37c-.06-.1-.11-.22-.18-.31a4.07,4.07,0,0,0-.3-.35c-.07-.08-.13-.16-.2-.24a3.88,3.88,0,0,0-.38-.3l-.21-.16a3.78,3.78,0,0,0-.42-.22l-.22-.11a3.6,3.6,0,0,0-.43-.13l-.26-.08a3.38,3.38,0,0,0-.39,0c-.11,0-.21,0-.32,0a3.39,3.39,0,0,0-.35,0,3.2,3.2,0,0,0-.36.05,3.41,3.41,0,0,0-.33.12,3.26,3.26,0,0,0-.35.13L126,109.1a19.58,19.58,0,0,0-1.82,1L28.72,158.82a4.06,4.06,0,0,0-1.62,5.32,3.75,3.75,0,0,0,4.13,2.26,3.36,3.36,0,0,0,.82-.29l82.82-42.26A24.9,24.9,0,0,0,116,138.13l6.65,17.34a17.13,17.13,0,0,0,9.22,10.09,14.22,14.22,0,0,0,12.83-.69L170.47,150a6.31,6.31,0,0,1,6-.18,7.69,7.69,0,0,1,4,5l0,.1,6.82,23.44A11.36,11.36,0,0,1,182,186.8l-60.39,33.39a4.09,4.09,0,0,0-1.46,5.38,3.74,3.74,0,0,0,4.08,2.15,3.36,3.36,0,0,0,.92-.35L185.62,194l.09-.05a19.17,19.17,0,0,0,9-15.41,4.41,4.41,0,0,0-.17-1.52Z"/></g></g></svg>