<svg id="Calque_1" data-name="Calque 1" xmlns="http://www.w3.org/2000/svg" viewBox="0 0 162 176"><defs><style>.cls-1{fill:#fff;}</style></defs><title>logo_sy</title><path class="cls-1" d="M31.93,147.59c.52-3.14.06-5.47-2.15-6.4l-8.67-3.78-.52-1.22,1.11-6.4.7-.58H25.3l.47.58-1.22,6.92h9.31l1.4-7.79c.64-3.84-.93-6-3.32-7H18.32c-3.32.93-5,2.56-5.76,7l-1.51,8.49c-.64,3.72-.52,5.12,2.15,6.4l8.84,4.3.35.81-1.22,7-.7.58H17.57L17.1,156l1.28-7.39H9.08l-1.45,8.26c-.7,3.84.93,6,3.32,7H24.55c3.32-.93,5-2.56,5.76-7Z"/><path class="cls-1" d="M47.41,163.82c3.32-.93,5-2.56,5.76-7l3.37-19.19c.7-3.84-.87-6-3.26-7H41.42c-3.32.93-5,2.56-5.82,7l-3.37,19.19c-.7,3.84.93,6,3.32,7Zm-3.14-25.88.7-.58h2.33l.47.58L44.5,156.55l-.7.58H41.47l-.47-.58Z"/><polygon class="cls-1" points="81.28 130.66 75.69 151.72 75.11 151.72 76.92 130.66 68.19 130.66 67.55 163.82 70.34 163.82 67.78 170.8 76.51 170.8 90 130.66 81.28 130.66"/><path class="cls-1" d="M110.68,137.64c.7-3.84-.87-6-3.26-7H95.55c-3.32.93-5,2.56-5.82,7l-3.37,19.19c-.7,3.84.93,6,3.32,7h11.87c3.32-.93,5-2.56,5.76-7Zm-12,18.9-.7.58H95.61l-.47-.58,3.26-18.61.7-.58h2.33l.47.58Z"/><path class="cls-1" d="M114.05,130.66l-4.65,26.17c-.7,3.84.93,6,3.32,7h11.87c3.32-.93,5-2.56,5.76-7L135,130.66h-8.73l-4.6,25.88-.7.58h-2.33l-.47-.58,4.6-25.88Z"/><polygon class="cls-1" points="154.54 130.66 137.09 130.66 135.7 138.52 143.96 138.52 132.44 156.84 131.22 163.82 148.67 163.82 150.06 155.97 141.98 155.97 153.26 137.64 154.54 130.66"/><polygon class="cls-1" points="56.33 151.48 64.82 151.48 65.97 144.94 57.48 144.94 56.33 151.48"/><path class="cls-1" d="M117.37,95.19a38.68,38.68,0,0,0-9-45.25,54.63,54.63,0,0,1-3,5.83l-3.84,6.41-1.6-9.44c-1.26,2-2.87,4.7-3.28,5.51S94.83,62.69,93.26,67c-.43,1.4-.54,2.94,0,3.69h0a12.89,12.89,0,0,1,.84,1.08,11.5,11.5,0,0,1,15.52,12.25C113.73,85.65,116.83,90,117.37,95.19Z"/><path class="cls-1" d="M57.44,83.54c0-.05,0-.1,0-.15,0-.35,0-.69.05-1A12.75,12.75,0,0,1,73.57,71a12.77,12.77,0,0,1,10-4.78c.4,0,.79,0,1.19.07l0,0c.93-.16,1.41-.93,1.85-2.1,1.18-4.08,2.16-7.6,2.39-8.65.17-.8.46-3.57.64-5.83l-6.89,7,.5-7.7a51.33,51.33,0,0,1,1.46-9c-.74,0-1.48-.07-2.22-.07a38.67,38.67,0,0,0-32,60.41,14.39,14.39,0,0,1,7-16.84Z"/><path class="cls-1" d="M57.11,115.34c.42.29.85.57,1.28.85a44.45,44.45,0,0,0,46,1.24,44.55,44.55,0,0,0,5.93-73.57,22,22,0,0,1-.81,3.05A41.65,41.65,0,0,1,116,103.42a42.07,42.07,0,0,1-4.45,5.09l-.22.21a41.59,41.59,0,0,1-25.74,11.52l-1.08.08c-.68,0-1.36.05-2.05.05a41.74,41.74,0,1,1,0-83.48c1.09,0,2.16.06,3.23.14a12.64,12.64,0,0,1,1.51-2.75,44.59,44.59,0,0,0-30,81.06Z"/><path class="cls-1" d="M100,40.81l1.68-2.39c2.87-4.1,7.09-10.24,7.47-11.37,4.71-13.76,1-21.85,1-21.85s-7.3,2.57-12.56,17.94c-.5,1.46-.91,8.34-1.15,13.18-.06,1.14-.1,2.16-.14,3-.05,1.2-.08,1.95-.08,1.95l2.77.94Zm.17-19.06A32.34,32.34,0,0,1,109,7.66c-7.17,11.78-8,17-10.24,26.47C98.79,34.13,99.09,25.21,100.2,21.75Z"/><path class="cls-1" d="M105.95,48A28.92,28.92,0,0,0,107,45a12,12,0,0,0,.54-3.13c0-.17,0-.35,0-.5a9.1,9.1,0,0,0-2.41-5.41l-2.06,3.23-1.55,2.43-.72,1.13.36,2.15,1.6,9.42A55.42,55.42,0,0,0,105.95,48Z"/><path class="cls-1" d="M93.63,41.62l.73-.74.1-2.21.13-2.94.13-2.89a9.13,9.13,0,0,0-4,2,8.29,8.29,0,0,0-1.05,1.06,7.74,7.74,0,0,0-.93,1.5,18.12,18.12,0,0,0-1.09,3,51.5,51.5,0,0,0-1.51,8.89Z"/><path class="cls-1" d="M92.85,45.13c-.17,1.43-.65,9.17-1,11-.29,1.37-1.68,6.27-3.12,11.2l-.36,1.24a1.42,1.42,0,0,1-.14.23h0a2.27,2.27,0,0,1-2.22.69h0c-.31-.07-.63-.13-1-.17a9.62,9.62,0,0,0-2.77,0,10.53,10.53,0,0,0-3.81,1.23,10.6,10.6,0,0,0-4.05,3.9h0a9,9,0,0,0-1.48,4.82s0,.06,0,.09a8.86,8.86,0,0,0,.18,1.76,10,10,0,0,0-1.16.56c-.2.11-.41.22-.6.35l-.34.24-.32.23A8.45,8.45,0,0,0,68.47,85a7.24,7.24,0,0,0-.94,3.53A7.4,7.4,0,0,0,68,91q-.3.33-.56.69a9,9,0,0,0-.55.85,8.74,8.74,0,0,0-.5,1.05,8.4,8.4,0,0,0-.14,6A8.27,8.27,0,0,1,65,95.33a8.14,8.14,0,0,1,.28-2.08,8.29,8.29,0,0,1,.41-1.18,8.73,8.73,0,0,1,1.08-1.84A8,8,0,0,1,67,84.55a8.79,8.79,0,0,1,1.47-2.34l.17-.2.17-.19a9.91,9.91,0,0,1,2-1.62,10.33,10.33,0,0,1,1-6.32A10.67,10.67,0,0,0,60.39,82c0,.13-.07.26-.1.39a10.72,10.72,0,0,0-.21,2.1c0,.2,0,.41,0,.61s0,.47.07.7a11.26,11.26,0,0,0,3.15,21.88l.54,0a11.26,11.26,0,0,0,2.65-.33,11,11,0,0,1-.42-3c0-.22,0-.43,0-.64a10.65,10.65,0,0,0,15.2,7,6.3,6.3,0,0,1-4.31-4,6.72,6.72,0,0,1-.39-1.94,8.06,8.06,0,0,0,13.4.33,6.46,6.46,0,0,1-4.42,5.39c.14.08.27.17.41.24a10.51,10.51,0,0,0,4.75,1.13c.27,0,.54,0,.81,0a10.54,10.54,0,0,0,7.7-4.27q.27-.37.51-.76a10.52,10.52,0,0,0,1.5-4.8,3.8,3.8,0,0,1-3.25-.72,4.07,4.07,0,0,1-.82-.87,5.11,5.11,0,0,0,4.07.07l.33-.17a4.83,4.83,0,0,0,1.26-1c.1-.1.2-.2.29-.31a4.87,4.87,0,0,0,1-2.75,3.92,3.92,0,0,1-.57,4.22A4.26,4.26,0,0,1,102,101.8a10.51,10.51,0,0,1,.23,2.09,10.63,10.63,0,0,1-.62,3.56,10,10,0,0,0,7.34-1.14,10.63,10.63,0,0,0,1.59-1.17q1-1.1,2-2.27a11.65,11.65,0,0,0,1.93-6.43c0-.29,0-.57,0-.86s0-.35-.07-.53A11.29,11.29,0,0,0,109,86.57a10.23,10.23,0,0,0-2-.9,10.06,10.06,0,0,0-8.4,1A10.43,10.43,0,0,1,106,83.38a9.83,9.83,0,0,1,1.11.07,10.24,10.24,0,0,0-12-9.72,10.14,10.14,0,0,0-2.11.61l-.36.13a10.43,10.43,0,0,0-5,4.87c-.15.3-.28.61-.4.92a10.23,10.23,0,0,0-.61,2.68c0,.05,0,.1,0,.15s0,.1,0,.15,0-.1,0-.15,0-.12,0-.18,0-.2,0-.31a11.55,11.55,0,0,1,.29-2.53V80c.07-.3.16-.6.25-.89A5.73,5.73,0,0,0,80.61,81a5.87,5.87,0,0,0-.35.48,4.4,4.4,0,0,1,.1-.75,4.6,4.6,0,0,1,2.19-2.95,5.6,5.6,0,0,1,.7-.36,5,5,0,0,1,2.6-.36,4.7,4.7,0,0,1,.66.14,4.58,4.58,0,0,1,1.19.49,11.57,11.57,0,0,1,3.21-4.08c.25-.2.5-.41.77-.59-.13-.15-.27-.29-.41-.43a10.72,10.72,0,0,0-1.15-1.07l.05,0a2.56,2.56,0,0,1-.79-2.15v-.07a2.64,2.64,0,0,1,.09-.53l.33-.91c1.78-4.95,3.58-9.85,4.16-11,.86-1.71,5-8.21,5.73-9.43.55-.88-.36-3-.75-3.82l-.05-.12L98,43.24,97.4,43l-1.49-.52C95.16,42.91,93,44.06,92.85,45.13Zm-9,49.81c-3.56,3.4-8.24,3.79-10.94,1.47,4.95,2.37,6.38-.17,9.9-3.16,4.18-3.55,10.83-3.71,12.92,1.52C91.62,90.47,86.79,92.09,83.8,94.94Zm5-24.27h0l0,0Z"/></svg>