<svg id="Calque_1" data-name="Calque 1" xmlns="http://www.w3.org/2000/svg" viewBox="0 0 350 98"><defs><style>.cls-1{fill:#fff;}.cls-2{fill:#e33c2c;}</style></defs><title>logo_blog</title><path class="cls-1" d="M7.84,10H40.9c16.22,0,22.87,7.9,22.87,20.79,0,6.44-3.64,15.18-11.12,15.8,7.8,1.25,13,8.32,13,16.22,0,17.05-8.21,23.29-24.22,23.29H7.84Zm31.5,28.28c3.12,0,4.68-2.39,4.68-5.3C44,28.36,41.63,27,39.34,27H28V38.24Zm1,30.77c4,0,5.09-2.7,5.09-7.28,0-3.85-1-7.49-5.09-7.49H28V69Z"/><path class="cls-1" d="M70.33,10H90.49V62.57c0,5.51,3.43,5.41,6.45,5.41h21.42V86.07H87.58c-9.46,0-17.26-4.47-17.26-16.22Z"/><path class="cls-1" d="M151.52,9.44c18,0,31.5,3.43,31.5,39.09,0,33.58-12.79,37.95-31.5,37.95S120,83.15,120,48.53C120,12.87,134.06,9.44,151.52,9.44Zm0,58.95c8.94,0,11.33-3.74,11.33-19.86,0-17.67-1.87-21-11.33-21-9.15,0-11.33,2.39-11.33,21C140.19,64.44,141.34,68.39,151.52,68.39Z"/><path class="cls-1" d="M212.45,9.13c16.53,0,17.57,0,31.61,3.85V28.47a165.63,165.63,0,0,0-25.37-2.29c-9.67,0-11.33,4.68-11.33,21.63s.62,20.27,9.77,20.27c6.45,0,7.48-4.78,7.48-4.78V55.5h-5.09V43c4.68-2.49,11.33-2.6,18.19-2.6,2.18,0,4.57.1,7.07.31V86.07H230.54L224.83,81c-2.91,3.85-4.57,5.09-12.89,5.61-21.52,1.35-24.74-17.57-24.74-39C187.19,24.42,191.76,9.13,212.45,9.13Z"/><path class="cls-2" d="M303,9c-21.52,0-39,15.83-39,35.36,0,10.6,5.17,20.09,13.32,26.57-3.91,7.86-12.56,13.72-12.56,13.72,20.15,3,28.51-5.7,28.51-5.7l.16-.35A42.68,42.68,0,0,0,303,79.75c21.52,0,39-15.83,39-35.36S324.55,9,303,9Zm1.09,34.78q0,15.4-14.31,15.4V54.09q4.77,0,4.77-5.13h-4.77V35.61h14.31Zm19.13,0q0,15.4-14.31,15.4V54.09q4.77,0,4.77-5.13h-4.77V35.61h14.31Z"/></svg>