<?xml version="1.0" encoding="utf-8"?>
<!-- Generator: Adobe Illustrator 22.1.0, SVG Export Plug-In . SVG Version: 6.00 Build 0)  -->
<svg version="1.1" id="Calque_1" xmlns="http://www.w3.org/2000/svg" xmlns:xlink="http://www.w3.org/1999/xlink" x="0px" y="0px"
	 viewBox="0 0 718 583.5" style="enable-background:new 0 0 718 583.5;" xml:space="preserve">
<style type="text/css">
	.st0{fill:#25A8E0;}
</style>
<g id="Twitter">
	<path class="st0" d="M0,517.2c65.2,41.8,142.6,66.2,225.8,66.2c270.9,0,419-224.5,419-419.1c0-6.4-0.1-12.7-0.4-19.1
		c28.8-20.8,53.8-46.7,73.5-76.3c-26.4,11.8-54.8,19.7-84.6,23.3c30.4-18.2,53.8-47.1,64.7-81.5c-28.5,16.9-60,29.1-93.5,35.7
		C577.7,17.9,539.5,0,497.1,0c-81.3,0-147.3,65.9-147.3,147.3c0,11.5,1.3,22.8,3.8,33.6C231.2,174.7,122.6,116.1,50,27
		C37.3,48.7,30,74,30,101c0,51.1,26,96.2,65.6,122.6c-24.1-0.8-46.9-7.4-66.7-18.4c0,0.6,0,1.2,0,1.9c0,71.3,50.8,130.8,118.2,144.4
		c-12.3,3.4-25.4,5.2-38.8,5.2c-9.5,0-18.7-0.9-27.8-2.6c18.8,58.5,73.2,101.1,137.6,102.3c-50.4,39.5-113.9,63.1-182.9,63.1
		C23.2,519.3,11.5,518.6,0,517.2z"/>
</g>
</svg>
